<svg xmlns="http://www.w3.org/2000/svg" xmlns:xlink="http://www.w3.org/1999/xlink" width="500" zoomAndPan="magnify" viewBox="0 0 375 374.999991" height="500" preserveAspectRatio="xMidYMid meet" version="1.0"><path stroke-linecap="butt" transform="matrix(0.725856, 0, 0, 0.725856, -63.896315, 37.499998)" fill="none" stroke-linejoin="miter" d="M 292.851687 70.245717 L 136.3124 70.245717 C 117.864356 70.875362 110.141795 81.202606 110.141795 91.529851 C 110.141795 101.22207 117.234712 110.602157 128.901969 110.602157 L 178.956009 110.602157 L 108.24748 313.966539 C 106.907467 317.200866 106.595336 320.429812 106.595336 323.034495 C 106.595336 336.590685 118.574725 344.001115 130.790902 344.001115 C 141.828515 344.001115 152.785404 338.167487 156.961507 325.951309 L 232.158271 110.602157 L 284.811612 110.602157 C 302.8668 110.602157 310.670086 99.569926 310.670086 89.242681 C 310.670086 79.550462 303.8893 70.245717 292.851687 70.245717 Z M 555.660959 248.07452 C 548.885555 268.093983 536.034351 281.338042 518.221334 281.338042 L 517.903821 281.338042 C 525.00212 269.116483 529.888591 253.273123 529.888591 236.800118 C 529.888591 219.697469 524.367094 201.959794 510.810904 187.375722 C 532.487892 172.872375 547.308753 144.500705 547.308753 119.589389 C 547.308753 86.64338 522.478161 67.016771 494.337899 64.099957 C 491.421085 63.782444 487.874626 63.470313 483.38101 63.470313 C 474.318436 63.470313 462.414389 64.729602 450.117488 70.875362 C 450.117488 60.235985 440.419887 53.772712 429.46838 53.772712 C 418.511491 53.772712 406.214589 60.553498 401.720973 75.368978 L 317.144122 314.601565 C 315.486597 318.85301 314.856952 323.034495 314.856952 326.26344 C 314.856952 339.507499 324.866684 347.230061 335.823573 347.230061 C 347.097975 347.230061 359.707008 339.189986 362.941335 321.376969 C 374.291079 337.537842 399.121672 347.547574 424.657251 347.547574 C 449.17033 347.547574 475.340935 339.189986 494.655412 319.170523 C 500.801172 321.064838 507.264445 322.006614 514.987007 322.006614 C 552.824869 322.006614 583.171577 295.916732 594.440597 256.50745 C 594.75811 254.930648 595.075623 253.273123 595.075623 252.013834 C 595.075623 241.293734 584.748379 235.223316 574.421134 235.223316 C 566.381059 235.223316 558.265642 239.087288 555.660959 248.07452 Z M 440.107756 154.510437 C 429.780511 158.68654 420.400424 171.930599 420.400424 186.746078 C 420.400424 189.662892 420.717937 192.579707 421.428305 195.496521 C 426.863697 212.59917 441.447768 217.727812 453.663946 217.727812 C 458.550417 217.727812 463.044034 217.092786 466.278361 215.833497 C 474.318436 217.727812 478.887394 224.896072 478.887394 235.540829 C 478.887394 240.976221 477.864894 247.127363 475.340935 254.22028 C 463.673678 242.95126 446.253516 234.512948 424.657251 234.200817 C 414.254664 234.200817 402.033105 235.852961 393.917688 239.399419 L 432.697326 132.203804 C 440.7374 116.360443 458.86793 108.6325 472.741634 108.6325 C 484.328167 108.6325 493.708255 115.725417 493.708255 126.682306 C 493.708255 136.062394 489.214638 151.593623 473.68341 158.056896 C 470.454464 155.452213 461.784745 152.223267 452.404657 152.223267 C 448.223173 152.223267 443.971728 152.852911 440.107756 154.510437 Z M 421.030068 306.873621 C 409.131404 306.873621 402.350618 301.357506 402.350618 293.947075 C 402.350618 292.370274 402.350618 290.71813 402.980262 289.141328 C 405.584945 280.703016 413.937151 274.869388 426.234053 274.869388 C 439.478112 274.869388 447.830318 282.043029 456.580761 290.71813 C 446.571029 301.669637 432.697326 306.873621 421.030068 306.873621 Z M 421.030068 306.873621 " stroke="#005786" stroke-width="12.107287" stroke-opacity="1" stroke-miterlimit="4"/></svg>