<svg xmlns="http://www.w3.org/2000/svg" xmlns:xlink="http://www.w3.org/1999/xlink" width="500" zoomAndPan="magnify" viewBox="0 0 375 374.999991" height="500" preserveAspectRatio="xMidYMid meet" version="1.0"><defs><g/></defs><g fill="#ffd700" fill-opacity="0.9098"><g transform="translate(-23.407358, 296.609357)"><g><path d="M 164.746094 -198.730469 L 51.089844 -198.730469 C 37.730469 -198.261719 32.105469 -190.761719 32.105469 -183.261719 C 32.105469 -176.230469 37.261719 -169.433594 45.699219 -169.433594 L 82.023438 -169.433594 L 30.699219 -21.792969 C 29.761719 -19.449219 29.527344 -17.109375 29.527344 -15.234375 C 29.527344 -5.390625 38.199219 0 47.105469 0 C 55.070312 0 63.039062 -4.21875 66.085938 -13.125 L 120.691406 -169.433594 L 158.890625 -169.433594 C 172.011719 -169.433594 177.636719 -177.402344 177.636719 -184.902344 C 177.636719 -191.933594 172.714844 -198.730469 164.746094 -198.730469 Z M 164.746094 -198.730469 "/></g></g></g><g fill="#ffd700" fill-opacity="0.9098"><g transform="translate(167.353401, 296.609357)"><g><path d="M 164.746094 -69.601562 C 159.828125 -55.070312 150.453125 -45.464844 137.5625 -45.464844 L 137.328125 -45.464844 C 142.484375 -54.371094 146 -65.851562 146 -77.804688 C 146 -90.226562 142.015625 -103.113281 132.171875 -113.660156 C 147.875 -124.207031 158.65625 -144.828125 158.65625 -162.875 C 158.65625 -186.777344 140.609375 -201.070312 120.222656 -203.179688 C 118.113281 -203.414062 115.535156 -203.648438 112.253906 -203.648438 C 105.691406 -203.648438 97.019531 -202.710938 88.117188 -198.261719 C 88.117188 -205.992188 81.085938 -210.679688 73.117188 -210.679688 C 65.148438 -210.679688 56.242188 -205.757812 52.964844 -194.980469 L -8.4375 -21.324219 C -9.609375 -18.277344 -10.078125 -15.234375 -10.078125 -12.890625 C -10.078125 -3.28125 -2.8125 2.34375 5.15625 2.34375 C 13.359375 2.34375 22.496094 -3.515625 24.839844 -16.40625 C 33.042969 -4.6875 51.089844 2.578125 69.601562 2.578125 C 87.414062 2.578125 106.394531 -3.515625 120.457031 -18.046875 C 124.910156 -16.640625 129.59375 -15.9375 135.21875 -15.9375 C 162.640625 -15.9375 184.667969 -34.917969 192.871094 -63.507812 C 193.105469 -64.679688 193.339844 -65.851562 193.339844 -66.789062 C 193.339844 -74.523438 185.839844 -78.976562 178.339844 -78.976562 C 172.480469 -78.976562 166.621094 -76.164062 164.746094 -69.601562 Z M 80.851562 -137.5625 C 73.351562 -134.515625 66.554688 -124.910156 66.554688 -114.128906 C 66.554688 -112.019531 66.789062 -109.910156 67.257812 -107.800781 C 71.242188 -95.378906 81.789062 -91.628906 90.695312 -91.628906 C 94.207031 -91.628906 97.488281 -92.097656 99.832031 -93.035156 C 105.691406 -91.628906 108.972656 -86.476562 108.972656 -78.742188 C 108.972656 -74.757812 108.269531 -70.304688 106.394531 -65.148438 C 97.957031 -73.351562 85.304688 -79.445312 69.601562 -79.679688 C 62.101562 -79.679688 53.199219 -78.507812 47.339844 -75.929688 L 75.460938 -153.734375 C 81.320312 -165.214844 94.441406 -170.839844 104.519531 -170.839844 C 112.957031 -170.839844 119.753906 -165.683594 119.753906 -157.71875 C 119.753906 -150.921875 116.472656 -139.671875 105.222656 -134.984375 C 102.878906 -136.859375 96.550781 -139.203125 89.757812 -139.203125 C 86.710938 -139.203125 83.664062 -138.734375 80.851562 -137.5625 Z M 67.023438 -26.949219 C 58.351562 -26.949219 53.433594 -30.933594 53.433594 -36.324219 C 53.433594 -37.496094 53.433594 -38.667969 53.902344 -39.839844 C 55.773438 -45.933594 61.867188 -50.152344 70.773438 -50.152344 C 80.382812 -50.152344 86.476562 -44.996094 92.800781 -38.667969 C 85.539062 -30.699219 75.460938 -26.949219 67.023438 -26.949219 Z M 67.023438 -26.949219 "/></g></g></g><g fill="#005786" fill-opacity="1"><g transform="translate(-12.187172, 287.194503)"><g><path d="M 164.746094 -198.730469 L 51.089844 -198.730469 C 37.730469 -198.261719 32.105469 -190.761719 32.105469 -183.261719 C 32.105469 -176.230469 37.261719 -169.433594 45.699219 -169.433594 L 82.023438 -169.433594 L 30.699219 -21.792969 C 29.761719 -19.449219 29.527344 -17.109375 29.527344 -15.234375 C 29.527344 -5.390625 38.199219 0 47.105469 0 C 55.070312 0 63.039062 -4.21875 66.085938 -13.125 L 120.691406 -169.433594 L 158.890625 -169.433594 C 172.011719 -169.433594 177.636719 -177.402344 177.636719 -184.902344 C 177.636719 -191.933594 172.714844 -198.730469 164.746094 -198.730469 Z M 164.746094 -198.730469 "/></g></g></g><g fill="#005786" fill-opacity="1"><g transform="translate(178.573587, 287.194503)"><g><path d="M 164.746094 -69.601562 C 159.828125 -55.070312 150.453125 -45.464844 137.5625 -45.464844 L 137.328125 -45.464844 C 142.484375 -54.371094 146 -65.851562 146 -77.804688 C 146 -90.226562 142.015625 -103.113281 132.171875 -113.660156 C 147.875 -124.207031 158.65625 -144.828125 158.65625 -162.875 C 158.65625 -186.777344 140.609375 -201.070312 120.222656 -203.179688 C 118.113281 -203.414062 115.535156 -203.648438 112.253906 -203.648438 C 105.691406 -203.648438 97.019531 -202.710938 88.117188 -198.261719 C 88.117188 -205.992188 81.085938 -210.679688 73.117188 -210.679688 C 65.148438 -210.679688 56.242188 -205.757812 52.964844 -194.980469 L -8.4375 -21.324219 C -9.609375 -18.277344 -10.078125 -15.234375 -10.078125 -12.890625 C -10.078125 -3.28125 -2.8125 2.34375 5.15625 2.34375 C 13.359375 2.34375 22.496094 -3.515625 24.839844 -16.40625 C 33.042969 -4.6875 51.089844 2.578125 69.601562 2.578125 C 87.414062 2.578125 106.394531 -3.515625 120.457031 -18.046875 C 124.910156 -16.640625 129.59375 -15.9375 135.21875 -15.9375 C 162.640625 -15.9375 184.667969 -34.917969 192.871094 -63.507812 C 193.105469 -64.679688 193.339844 -65.851562 193.339844 -66.789062 C 193.339844 -74.523438 185.839844 -78.976562 178.339844 -78.976562 C 172.480469 -78.976562 166.621094 -76.164062 164.746094 -69.601562 Z M 80.851562 -137.5625 C 73.351562 -134.515625 66.554688 -124.910156 66.554688 -114.128906 C 66.554688 -112.019531 66.789062 -109.910156 67.257812 -107.800781 C 71.242188 -95.378906 81.789062 -91.628906 90.695312 -91.628906 C 94.207031 -91.628906 97.488281 -92.097656 99.832031 -93.035156 C 105.691406 -91.628906 108.972656 -86.476562 108.972656 -78.742188 C 108.972656 -74.757812 108.269531 -70.304688 106.394531 -65.148438 C 97.957031 -73.351562 85.304688 -79.445312 69.601562 -79.679688 C 62.101562 -79.679688 53.199219 -78.507812 47.339844 -75.929688 L 75.460938 -153.734375 C 81.320312 -165.214844 94.441406 -170.839844 104.519531 -170.839844 C 112.957031 -170.839844 119.753906 -165.683594 119.753906 -157.71875 C 119.753906 -150.921875 116.472656 -139.671875 105.222656 -134.984375 C 102.878906 -136.859375 96.550781 -139.203125 89.757812 -139.203125 C 86.710938 -139.203125 83.664062 -138.734375 80.851562 -137.5625 Z M 67.023438 -26.949219 C 58.351562 -26.949219 53.433594 -30.933594 53.433594 -36.324219 C 53.433594 -37.496094 53.433594 -38.667969 53.902344 -39.839844 C 55.773438 -45.933594 61.867188 -50.152344 70.773438 -50.152344 C 80.382812 -50.152344 86.476562 -44.996094 92.800781 -38.667969 C 85.539062 -30.699219 75.460938 -26.949219 67.023438 -26.949219 Z M 67.023438 -26.949219 "/></g></g></g></svg>